<?xml version="1.0" encoding="UTF-8"?>
<svg version="1.1" xmlns="http://www.w3.org/2000/svg" width="414" height="414">
<path d="M0 0 C9.9 0 19.8 0 30 0 C33.01040745 7.22497787 35.96213702 14.38418419 38.64453125 21.72265625 C38.97108704 22.60925934 39.29764282 23.49586243 39.63409424 24.40933228 C40.33269018 26.30677648 41.03016554 28.20463358 41.72659302 30.10287476 C43.22323408 34.18195036 44.72563791 38.25889592 46.22776794 42.33595276 C47.00550422 44.44689 47.78297856 46.55792377 48.56019592 48.66905212 C52.04744672 58.13879497 55.5599575 67.59901943 59.08230591 77.05575562 C60.06114999 79.68387534 61.03931285 82.31224776 62.01733398 84.94067383 C65.123545 93.28676969 68.23475233 101.63096812 71.35453796 109.97200012 C72.83881333 113.94131454 74.32110617 117.91136789 75.80319214 121.88150024 C76.5102993 123.77394458 77.21838775 125.66602259 77.92752075 127.55770874 C78.90982763 130.17820087 79.88884005 132.79990255 80.8671875 135.421875 C81.15600296 136.18967789 81.44481842 136.95748077 81.74238586 137.74855042 C82.01157333 138.47187057 82.2807608 139.19519073 82.55810547 139.94042969 C82.78964325 140.55907898 83.02118103 141.17772827 83.25973511 141.81512451 C84.284988 144.84113578 85.1222719 147.92795165 86 151 C130.22 151 174.44 151 220 151 C220 159.91 220 168.82 220 178 C218.25979159 179.74020841 215.91692813 179.37155418 213.57983398 179.59423828 C192.47755756 181.62561926 175.03127283 189.30425914 159 203 C158.32582031 203.57234375 157.65164063 204.1446875 156.95703125 204.734375 C138.96010348 221.37226704 132.14020286 245.45776857 130 269 C120.76 269 111.52 269 102 269 C99.49833782 263.3712601 97.07962521 257.80861156 94.890625 252.06640625 C94.60129089 251.31310532 94.31195679 250.55980438 94.01385498 249.78367615 C93.09035473 247.37745998 92.17014776 244.96999984 91.25 242.5625 C90.68119574 241.07999901 90.1121857 239.59757696 89.54296875 238.11523438 C81.99336024 218.42373958 74.50756767 198.70736513 67 179 C32.68 178.67 -1.64 178.34 -37 178 C-37.33 179.65 -37.66 181.3 -38 183 C-38.76497559 185.25926152 -39.57164474 187.50457009 -40.4050293 189.73950195 C-40.6491304 190.39728134 -40.89323151 191.05506073 -41.14472961 191.73277283 C-41.95098039 193.90262654 -42.76256389 196.07044382 -43.57421875 198.23828125 C-44.14166584 199.7621018 -44.70878369 201.28604498 -45.27558899 202.81010437 C-46.7708981 206.82800409 -48.27075505 210.84419141 -49.77154541 214.86004639 C-51.2769271 218.89068154 -52.77789405 222.92295957 -54.27929688 226.95507812 C-57.00353678 234.26861856 -59.72940028 241.58154473 -62.46517944 248.89077759 C-63.54566039 251.77887724 -64.61834492 254.66975871 -65.68740845 257.56210327 C-66.09966659 258.67296563 -66.09966659 258.67296563 -66.52025318 259.80626965 C-67.04780465 261.2278188 -67.5732597 262.65014819 -68.09634686 264.07334614 C-69.88716112 268.88716112 -69.88716112 268.88716112 -71 270 C-73.14558827 270.08775605 -75.29404421 270.10695219 -77.44140625 270.09765625 C-78.74658203 270.09443359 -80.05175781 270.09121094 -81.39648438 270.08789062 C-82.7851569 270.07953401 -84.17382877 270.07106905 -85.5625 270.0625 C-86.95507656 270.05748666 -88.34765481 270.05292347 -89.74023438 270.04882812 C-93.1601987 270.03699434 -96.58007844 270.0205088 -100 270 C-100.08636719 268.88625 -100.17273438 267.7725 -100.26171875 266.625 C-102.11727335 245.45672094 -108.75546908 226.11167873 -123 210 C-123.45503906 209.40316406 -123.91007812 208.80632812 -124.37890625 208.19140625 C-136.39001971 192.66659393 -157.58023475 182.84383124 -176.6171875 180.35546875 C-179.63344563 179.99093802 -182.65142107 179.68269976 -185.67578125 179.39453125 C-189 179 -189 179 -190 178 C-190 169.09 -190 160.18 -190 151 C-145.78 151 -101.56 151 -56 151 C-55.01 147.7 -54.02 144.4 -53 141 C-52.25261026 138.8361431 -51.48327102 136.67965564 -50.68530273 134.53393555 C-50.24798828 133.35351181 -49.81067383 132.17308807 -49.36010742 130.95689392 C-48.88468937 129.6834699 -48.40918188 128.41007926 -47.93359375 127.13671875 C-47.42537966 125.76913678 -46.91741135 124.40146346 -46.40966797 123.03370667 C-45.04085805 119.34923324 -43.6678842 115.66632484 -42.29389572 111.98377991 C-41.43524941 109.68146542 -40.57778463 107.37871446 -39.72073364 105.07580566 C-30.96445603 81.54788503 -22.15151175 58.04125223 -13.30296707 34.54788589 C-12.72468313 33.0124947 -12.14648476 31.47707127 -11.56837082 29.94161606 C-9.92296334 25.57152734 -8.2763222 21.20190772 -6.62756348 16.8330822 C-6.12780614 15.50851886 -5.62837974 14.18383061 -5.12930298 12.8590107 C-4.44980357 11.0556752 -3.76876848 9.25291858 -3.08764648 7.45019531 C-2.70640121 6.43999329 -2.32515594 5.42979126 -1.93235779 4.38897705 C-1 2 -1 2 0 0 Z M15 41 C11.15725564 50.0192134 7.62024461 59.13971442 4.17578125 68.31640625 C3.62412027 69.7816318 3.07229245 71.24679454 2.52030945 72.7118988 C1.36683012 75.77481814 0.21471525 78.83824568 -0.9362793 81.90209961 C-2.37856291 85.74129494 -3.82324886 89.57958007 -5.26882744 93.41753578 C-8.59301309 102.2434763 -11.90785805 111.07288662 -15.21526337 119.90512848 C-15.99495341 121.98652802 -16.77551386 124.06759951 -17.55621338 126.14862061 C-18.98582648 129.96074956 -20.40941856 133.77509682 -21.83203125 137.58984375 C-22.25771896 138.72434464 -22.68340668 139.85884552 -23.12199402 141.02772522 C-23.69546318 142.57042336 -23.69546318 142.57042336 -24.28051758 144.14428711 C-24.61473221 145.03941513 -24.94894684 145.93454315 -25.29328918 146.85679626 C-26.10438636 148.94044773 -26.10438636 148.94044773 -26 151 C1.39 151 28.78 151 57 151 C51.12147097 134.17877579 51.12147097 134.17877579 44.92578125 117.484375 C44.47918655 116.31016998 44.03259186 115.13596497 43.57246399 113.92617798 C42.39522878 110.83189417 41.21581603 107.73845252 40.03540802 104.64537811 C38.81173777 101.4370615 37.59115971 98.22756949 36.37060547 95.01806641 C36.12804897 94.38025553 35.88549248 93.74244465 35.63558578 93.08530617 C35.14846401 91.80435308 34.66135888 90.52339366 34.17427063 89.24242783 C33.45401643 87.34855277 32.73344335 85.45479929 32.01281738 83.56106567 C28.18920988 73.50936475 24.39362004 63.44743583 20.625 53.375 C20.37634186 52.71060913 20.12768372 52.04621826 19.87149048 51.36169434 C18.57932535 47.90841814 17.28867319 44.45458077 16 41 C15.67 41 15.34 41 15 41 Z M-114 178 C-109.27970592 183.55435205 -109.27970592 183.55435205 -104.25 188.5625 C-95.1674825 197.55818655 -88.69283653 208.65202784 -83 220 C-80.12300549 217.12300549 -79.14553824 213.56105496 -77.7421875 209.81640625 C-77.43427277 209.0050975 -77.12635803 208.19378876 -76.80911255 207.3578949 C-76.15930778 205.64153785 -75.51223204 203.9241455 -74.86767578 202.20581055 C-73.87918753 199.5736506 -72.87969594 196.94586305 -71.87890625 194.31835938 C-71.24933449 192.65129285 -70.62040653 190.98398301 -69.9921875 189.31640625 C-69.5422493 188.13504845 -69.5422493 188.13504845 -69.08322144 186.92982483 C-67.92620666 183.82814782 -67 181.338903 -67 178 C-82.51 178 -98.02 178 -114 178 Z M96 178 C97.546875 182.351875 99.09375 186.70375 100.6875 191.1875 C101.16405029 192.53094482 101.64060059 193.87438965 102.1315918 195.25854492 C103.40903364 198.84348867 104.70021089 202.42309764 106 206 C106.22753967 206.62811584 106.45507935 207.25623169 106.68951416 207.90338135 C107.3537189 209.72639383 108.03015434 211.54493582 108.70703125 213.36328125 C109.09995361 214.42458252 109.49287598 215.48588379 109.89770508 216.5793457 C110.75794521 219.14091706 110.75794521 219.14091706 113 220 C113.47308594 219.05640625 113.94617188 218.1128125 114.43359375 217.140625 C122.09616266 202.14727662 132.10871122 189.89128878 144 178 C128.16 178 112.32 178 96 178 Z " fill="#1193F5" transform="translate(192,72)"/>
<path d="M0 0 C3.68074114 0.00640077 7.36148381 0.00685017 11.04222965 0.00802541 C17.96158504 0.0110908 24.88092397 0.01923704 31.80027223 0.0293749 C39.699197 0.04068811 47.59812272 0.04608415 55.49705362 0.05107033 C71.69886905 0.06142574 87.90066808 0.07892863 104.10247135 0.10139394 C104.13133474 4.58054722 104.14922323 9.05967685 104.16497135 13.53889394 C104.17335026 14.81828847 104.18172916 16.097683 104.19036198 17.41584706 C104.19358463 18.63078847 104.19680729 19.84572988 104.2001276 21.09748769 C104.20536442 22.22340322 104.21060123 23.34931874 104.21599674 24.50935292 C104.10247135 27.10139394 104.10247135 27.10139394 103.10247135 28.10139394 C101.29759079 28.3156042 99.49165832 28.5232326 97.68230534 28.69563222 C76.58002891 30.7270132 59.13374418 38.40565308 43.10247135 52.10139394 C42.42829166 52.67373769 41.75411198 53.24608144 41.0595026 53.83576894 C23.06257483 70.47366098 16.24267421 94.5591625 14.10247135 118.10139394 C5.19247135 118.10139394 -3.71752865 118.10139394 -12.89752865 118.10139394 C-14.30149156 85.81024697 -1.4217728 58.01722077 19.96184635 34.25764394 C22.10247135 32.10139394 22.10247135 32.10139394 27.10247135 28.10139394 C2.35247135 27.77139394 -22.39752865 27.44139394 -47.89752865 27.10139394 C-51.49939423 18.45691654 -54.81245683 9.91588484 -57.89752865 1.10139394 C-38.59044985 0.25628482 -19.32357909 -0.03950774 0 0 Z " fill="#0047A3" transform="translate(307.89752864837646,222.89860606193542)"/>
<path d="M0 0 C0.83237906 0.00092179 1.66475813 0.00184359 2.5223608 0.00279331 C3.47453487 0.00141865 4.42670895 0.00004398 5.40773678 -0.00137234 C6.46077496 0.00222294 7.51381313 0.00581821 8.59876156 0.00952244 C10.25221081 0.0093034 10.25221081 0.0093034 11.93906307 0.00907993 C15.60226021 0.00977961 19.26540723 0.01757459 22.92859554 0.02539158 C25.46065398 0.02725556 27.99271277 0.02867956 30.52477169 0.0296793 C36.52067179 0.03311437 42.51655019 0.04100514 48.51244158 0.05102879 C55.33699987 0.06219105 62.16155901 0.06770066 68.98612416 0.07272422 C83.02815593 0.08318779 97.07017162 0.10078653 111.11218929 0.12304783 C111.11218929 0.45304783 111.11218929 0.78304783 111.11218929 1.12304783 C97.74718929 1.61804783 97.74718929 1.61804783 84.11218929 2.12304783 C87.08218929 10.04304783 90.05218929 17.96304783 93.11218929 26.12304783 C106.97218929 26.61804783 106.97218929 26.61804783 121.11218929 27.12304783 C124.49071868 34.72473895 127.6332236 42.32765891 130.59583187 50.08935642 C131.15075767 51.53461531 131.71234856 52.97733178 132.28040218 54.41748142 C133.11098818 56.52462486 133.92024666 58.63891569 134.72547054 60.75586033 C134.98056896 61.39145878 135.23566738 62.02705723 135.49849606 62.68191624 C137.97477571 69.33595485 136.38475142 74.73877038 134.23718929 81.24804783 C130.35410469 93.64567794 128.56110469 105.19738043 128.11218929 118.12304783 C124.62709956 115.37428108 123.66325023 111.8098538 122.17078304 107.73242283 C112.38771019 81.09544777 102.26366843 54.6296878 92.11218929 28.12304783 C57.79218929 27.79304783 23.47218929 27.46304783 -11.88781071 27.12304783 C-9.99695219 20.82018609 -8.09260097 14.68941818 -5.76281071 8.56054783 C-5.49855289 7.85091892 -5.23429508 7.14129002 -4.96202946 6.4101572 C-2.60930956 0.17007525 -2.60930956 0.17007525 0 0 Z " fill="#0048A4" transform="translate(166.88781070709229,222.87695217132568)"/>
<path d="M0 0 C44.22 0 88.44 0 134 0 C132.10914148 6.30286174 130.20479026 12.43362964 127.875 18.5625 C127.61074219 19.27212891 127.34648437 19.98175781 127.07421875 20.71289062 C125.1297043 25.8702957 125.1297043 25.8702957 124 27 C122.393108 27.09600136 120.78198231 27.12187889 119.17222595 27.12025452 C118.12749619 27.12162918 117.08276642 27.12300385 116.00637817 27.12442017 C114.85048187 27.12082489 113.69458557 27.11722961 112.50366211 27.11352539 C111.29407333 27.11367142 110.08448456 27.11381744 108.83824158 27.1139679 C105.51193649 27.11338893 102.18569281 27.10835973 98.8593986 27.10139394 C95.38670071 27.09515978 91.91400207 27.09455655 88.44129944 27.09336853 C81.86103807 27.0902554 75.28079324 27.08204225 68.70053917 27.07201904 C61.21093888 27.06085734 53.72133782 27.05534731 46.2317313 27.05032361 C30.82114298 27.03985962 15.41057745 27.02151437 0 27 C0 18.09 0 9.18 0 0 Z " fill="#0047A4" transform="translate(2,223)"/>
<path d="M0 0 C9.57 0 19.14 0 29 0 C32.37852939 7.60169112 35.52103431 15.20461108 38.48364258 22.96630859 C39.03856838 24.41156748 39.60015927 25.85428395 40.16821289 27.29443359 C40.99879889 29.40157703 41.80805736 31.51586786 42.61328125 33.6328125 C42.99592888 34.58621017 42.99592888 34.58621017 43.38630676 35.55886841 C45.86258641 42.21290702 44.27256212 47.61572255 42.125 54.125 C38.2419154 66.52263011 36.44891539 78.0743326 36 91 C32.56558872 88.29120446 31.48848309 84.58458684 30.05859375 80.609375 C29.77843414 79.85251907 29.49827454 79.09566315 29.20962524 78.31587219 C28.59926023 76.66461889 27.99260263 75.01199161 27.38919067 73.35818481 C25.75228288 68.87210739 24.08912049 64.39575162 22.4296875 59.91796875 C22.07896683 58.96929428 21.72824615 58.02061981 21.36689758 57.04319763 C16.63898269 44.2793688 11.73059322 31.58417069 6.83761597 18.88293457 C5.69388021 15.91332064 4.55196843 12.94301018 3.41015625 9.97265625 C2.89094101 8.62860466 2.89094101 8.62860466 2.36123657 7.25740051 C2.04874969 6.4442186 1.73626282 5.63103668 1.41430664 4.79321289 C1.13978165 4.08113174 0.86525665 3.3690506 0.58241272 2.63539124 C0 1 0 1 0 0 Z " fill="#1193F5" transform="translate(259,250)"/>
<path d="M0 0 C27.84725807 -0.47602151 51.93137033 7.99264122 74 25 C74 25.33 74 25.66 74 26 C49.58 26 25.16 26 0 26 C0 17.42 0 8.84 0 0 Z " fill="#002A9E" transform="translate(2,224)"/>
<path d="M0 0 C9.24 0 18.48 0 28 0 C30.00774934 4.99706503 32.00981952 9.9959657 34 15 C34.35191406 15.88171875 34.70382812 16.7634375 35.06640625 17.671875 C36.20828446 20.60655717 37 22.82030643 37 26 C28.09 26 19.18 26 10 26 C6.387835 17.330804 3.09247568 8.83564481 0 0 Z " fill="#002A9E" transform="translate(250,224)"/>
<path d="M0 0 C2.5715266 2.5715266 3.2241691 4.94711663 4.4609375 8.37109375 C4.80869736 9.32653831 4.80869736 9.32653831 5.16348267 10.30128479 C5.90591762 12.34482711 6.64056916 14.39106918 7.375 16.4375 C7.86146519 17.7807852 8.34843919 19.12388626 8.8359375 20.46679688 C9.78497188 23.08303325 10.72957122 25.70080563 11.67089844 28.31982422 C13.19449018 32.53852774 14.75211538 36.7441578 16.32275391 40.94555664 C17 43 17 43 17 45 C8.42 45 -0.16 45 -9 45 C-9.43133036 35.07940165 -9.02346966 26.47526782 -6.6875 16.8125 C-6.47456299 15.92860596 -6.26162598 15.04471191 -6.04223633 14.1340332 C-3.24531632 3.24531632 -3.24531632 3.24531632 0 0 Z " fill="#002B9E" transform="translate(304,296)"/>
<path d="M0 0 C9.24 0 18.48 0 28 0 C24.625 11.25 24.625 11.25 22.51953125 16.6640625 C22.07802734 17.80488281 21.63652344 18.94570312 21.18164062 20.12109375 C20.72982422 21.27738281 20.27800781 22.43367188 19.8125 23.625 C19.11737305 25.41744141 19.11737305 25.41744141 18.40820312 27.24609375 C17.27551405 30.16539549 16.13938352 33.08330604 15 36 C14.34 36 13.68 36 13 36 C11.14653214 31.0345414 9.29517408 26.06830343 7.44580078 21.10131836 C6.81585258 19.41034486 6.18531974 17.71958904 5.55419922 16.02905273 C4.64919122 13.60456898 3.74626181 11.17932013 2.84375 8.75390625 C2.55939087 7.99348526 2.27503174 7.23306427 1.98205566 6.44960022 C0 1.11387171 0 1.11387171 0 0 Z " fill="#0156ED" transform="translate(193,73)"/>
</svg>
