<?xml version="1.0" encoding="utf-8"?>
<svg version="1.1" id="cm-logo-full" xmlns="http://www.w3.org/2000/svg" xmlns:xlink="http://www.w3.org/1999/xlink" x="0px" y="0px"
	 viewBox="0 0 1051.336 566.95" style="enable-background:new 0 0 1051.336 566.95;" xml:space="preserve">
<style type="text/css">
	.st0,.st3{fill:#0DB3E7;}
	.st1,.st2{fill:#0B7EC2;}
</style>
<g>
	<path class="st0" d="M11.854,564.578c-3.702-2.013-6.604-4.795-8.703-8.346C1.05,552.683,0,548.677,0,544.217
		c0-4.459,1.061-8.465,3.183-12.016c2.121-3.55,5.034-6.333,8.736-8.347c3.702-2.013,7.848-3.02,12.438-3.02
		c3.724,0,7.122,0.649,10.197,1.948c3.074,1.299,5.672,3.183,7.794,5.65l-5.456,5.131c-3.291-3.55-7.339-5.325-12.146-5.325
		c-3.117,0-5.91,0.682-8.378,2.046c-2.469,1.363-4.396,3.259-5.781,5.683c-1.386,2.426-2.078,5.175-2.078,8.249
		c0,3.075,0.692,5.824,2.078,8.249s3.312,4.318,5.781,5.683c2.468,1.364,5.261,2.046,8.378,2.046c4.807,0,8.854-1.796,12.146-5.391
		L42.348,560c-2.122,2.468-4.731,4.352-7.826,5.65c-3.097,1.299-6.506,1.948-10.229,1.948
		C19.701,567.599,15.556,566.592,11.854,564.578z"/>
	<path class="st0" d="M58.195,564.578c-3.725-2.013-6.647-4.806-8.769-8.378c-2.122-3.572-3.183-7.566-3.183-11.983
		s1.061-8.411,3.183-11.983c2.121-3.572,5.044-6.365,8.769-8.379c3.724-2.013,7.901-3.02,12.535-3.02
		c4.633,0,8.812,1.007,12.535,3.02c3.724,2.014,6.646,4.797,8.769,8.347c2.121,3.551,3.183,7.557,3.183,12.016
		c0,4.46-1.062,8.466-3.183,12.016c-2.122,3.551-5.045,6.333-8.769,8.346c-3.724,2.014-7.902,3.021-12.535,3.021
		C66.097,567.599,61.919,566.592,58.195,564.578z M78.914,558.149c2.425-1.364,4.33-3.269,5.716-5.716
		c1.386-2.445,2.078-5.185,2.078-8.216c0-3.03-0.692-5.77-2.078-8.216s-3.291-4.353-5.716-5.716
		c-2.425-1.364-5.153-2.046-8.184-2.046c-3.031,0-5.759,0.682-8.184,2.046c-2.426,1.363-4.33,3.27-5.716,5.716
		s-2.078,5.186-2.078,8.216c0,3.031,0.692,5.771,2.078,8.216c1.386,2.447,3.29,4.352,5.716,5.716
		c2.425,1.364,5.152,2.046,8.184,2.046C73.761,560.195,76.489,559.513,78.914,558.149z"/>
	<path class="st0" d="M144.578,521.485v45.465h-6.949l-25.071-30.786v30.786h-8.378v-45.465h6.949l25.071,30.786v-30.786H144.578z"
		/>
	<path class="st0" d="M160.719,566.105c-3.271-0.995-5.857-2.315-7.762-3.962l2.923-6.56c1.861,1.473,4.146,2.674,6.852,3.604
		c2.706,0.932,5.424,1.396,8.151,1.396c3.378,0,5.899-0.541,7.567-1.624c1.666-1.081,2.5-2.511,2.5-4.286
		c0-1.299-0.466-2.371-1.396-3.215c-0.932-0.845-2.11-1.504-3.54-1.981c-1.429-0.476-3.377-1.017-5.845-1.624
		c-3.465-0.821-6.268-1.645-8.411-2.468c-2.144-0.822-3.984-2.11-5.521-3.864c-1.538-1.754-2.307-4.125-2.307-7.112
		c0-2.511,0.683-4.795,2.046-6.853c1.364-2.056,3.421-3.69,6.171-4.903c2.749-1.212,6.115-1.818,10.1-1.818
		c2.771,0,5.498,0.347,8.184,1.039c2.685,0.693,5.001,1.688,6.949,2.987l-2.662,6.561c-1.992-1.169-4.071-2.057-6.235-2.663
		c-2.166-0.606-4.266-0.909-6.301-0.909c-3.334,0-5.812,0.562-7.437,1.688s-2.436,2.62-2.436,4.481c0,1.299,0.465,2.36,1.396,3.183
		c0.931,0.823,2.111,1.473,3.54,1.948c1.429,0.478,3.377,1.019,5.846,1.624c3.377,0.779,6.147,1.591,8.313,2.436
		c2.164,0.845,4.016,2.133,5.553,3.864c1.537,1.732,2.306,4.071,2.306,7.015c0,2.512-0.682,4.785-2.046,6.82
		c-1.363,2.035-3.432,3.659-6.202,4.871c-2.771,1.212-6.149,1.818-10.133,1.818C167.376,567.599,163.987,567.101,160.719,566.105z"
		/>
	<path class="st0" d="M206.216,528.629h-15.068v-7.145h38.58v7.145h-15.068v38.32h-8.443V528.629z"/>
	<path class="st0" d="M263.308,556.428h-22.732l-4.481,10.521h-8.704l20.46-45.465h8.313l20.524,45.465h-8.834L263.308,556.428z
		 M260.515,549.803l-8.573-19.875l-8.509,19.875H260.515z"/>
	<path class="st0" d="M322.865,521.485v45.465h-6.949l-25.071-30.786v30.786h-8.378v-45.465h6.949l25.071,30.786v-30.786H322.865z"
		/>
	<path class="st0" d="M344.299,528.629H329.23v-7.145h38.58v7.145h-15.068v38.32h-8.443V528.629z"/>
	<path class="st0" d="M374.176,521.485h8.443v45.465h-8.443V521.485z"/>
	<path class="st0" d="M435.292,521.485v45.465h-6.949l-25.071-30.786v30.786h-8.378v-45.465h6.949l25.071,30.786v-30.786H435.292z"
		/>
	<path class="st0" d="M481.602,559.87v7.079h-34.099v-45.465h33.189v7.079h-24.746v11.821h21.953v6.949h-21.953v12.536H481.602z"/>
	<path class="st1" d="M489.136,540.579h17.861v6.755h-17.861V540.579z"/>
	<path class="st1" d="M559.086,566.95l-0.065-30.137l-14.938,24.94h-3.767l-14.938-24.551v29.747h-8.054v-45.465h6.949
		l18.056,30.137l17.731-30.137h6.949l0.065,45.465H559.086z"/>
	<path class="st1" d="M579.35,521.485h8.443v45.465h-8.443V521.485z"/>
	<path class="st1" d="M640.466,521.485v45.465h-6.949l-25.071-30.786v30.786h-8.378v-45.465h6.949l25.071,30.786v-30.786H640.466z"
		/>
	<path class="st1" d="M693.076,521.485v45.465h-8.443v-19.485h-23.512v19.485h-8.443v-45.465h8.443v18.771h23.512v-18.771H693.076z"
		/>
	<path class="st1" d="M734.774,556.428h-22.732l-4.481,10.521h-8.704l20.46-45.465h8.313l20.524,45.465h-8.834L734.774,556.428z
		 M731.981,549.803l-8.573-19.875l-8.509,19.875H731.981z"/>
	<path class="st1" d="M784.331,543.698h7.989v18.121c-2.339,1.862-5.066,3.291-8.184,4.286c-3.118,0.996-6.323,1.494-9.613,1.494
		c-4.634,0-8.812-1.007-12.535-3.021c-3.725-2.013-6.647-4.795-8.769-8.346c-2.122-3.55-3.183-7.556-3.183-12.016
		c0-4.459,1.061-8.465,3.183-12.016c2.121-3.55,5.056-6.333,8.801-8.347c3.745-2.013,7.957-3.02,12.633-3.02
		c3.81,0,7.274,0.628,10.393,1.883c3.117,1.257,5.736,3.097,7.858,5.521l-5.326,5.195c-3.464-3.463-7.643-5.195-12.535-5.195
		c-3.205,0-6.051,0.672-8.541,2.014s-4.438,3.226-5.845,5.65c-1.408,2.425-2.111,5.195-2.111,8.313c0,3.031,0.703,5.759,2.111,8.184
		c1.406,2.426,3.354,4.33,5.845,5.716s5.315,2.078,8.477,2.078c3.55,0,6.667-0.779,9.353-2.338V543.698z"/>
	<path class="st1" d="M803.425,521.485h8.443v45.465h-8.443V521.485z"/>
	<path class="st1" d="M865.906,566.95l-0.065-30.137l-14.938,24.94h-3.767l-14.938-24.551v29.747h-8.054v-45.465h6.949
		l18.057,30.137l17.731-30.137h6.949l0.065,45.465H865.906z"/>
	<path class="st1" d="M884.221,565.878c-1.04-1.018-1.56-2.306-1.56-3.865c0-1.602,0.509-2.9,1.526-3.896s2.284-1.494,3.8-1.494
		s2.782,0.498,3.8,1.494c1.017,0.996,1.526,2.295,1.526,3.896c0,1.56-0.52,2.848-1.559,3.865c-1.04,1.018-2.296,1.526-3.768,1.526
		C886.515,567.405,885.26,566.896,884.221,565.878z"/>
	<path class="st1" d="M909.324,564.578c-3.702-2.013-6.604-4.795-8.703-8.346c-2.101-3.55-3.15-7.556-3.15-12.016
		c0-4.459,1.061-8.465,3.183-12.016c2.121-3.55,5.034-6.333,8.736-8.347c3.702-2.013,7.848-3.02,12.438-3.02
		c3.724,0,7.122,0.649,10.197,1.948c3.074,1.299,5.672,3.183,7.794,5.65l-5.456,5.131c-3.291-3.55-7.339-5.325-12.146-5.325
		c-3.117,0-5.91,0.682-8.378,2.046c-2.469,1.363-4.396,3.259-5.781,5.683c-1.386,2.426-2.078,5.175-2.078,8.249
		c0,3.075,0.692,5.824,2.078,8.249s3.312,4.318,5.781,5.683c2.468,1.364,5.261,2.046,8.378,2.046c4.807,0,8.854-1.796,12.146-5.391
		l5.456,5.196c-2.122,2.468-4.731,4.352-7.826,5.65c-3.097,1.299-6.506,1.948-10.229,1.948
		C917.171,567.599,913.026,566.592,909.324,564.578z"/>
	<path class="st1" d="M955.666,564.578c-3.725-2.013-6.647-4.806-8.769-8.378c-2.122-3.572-3.183-7.566-3.183-11.983
		s1.061-8.411,3.183-11.983c2.121-3.572,5.044-6.365,8.769-8.379c3.724-2.013,7.901-3.02,12.535-3.02
		c4.633,0,8.812,1.007,12.535,3.02c3.724,2.014,6.646,4.797,8.769,8.347c2.121,3.551,3.183,7.557,3.183,12.016
		c0,4.46-1.062,8.466-3.183,12.016c-2.122,3.551-5.045,6.333-8.769,8.346c-3.724,2.014-7.902,3.021-12.535,3.021
		C963.567,567.599,959.389,566.592,955.666,564.578z M976.384,558.149c2.425-1.364,4.33-3.269,5.716-5.716
		c1.386-2.445,2.078-5.185,2.078-8.216c0-3.03-0.692-5.77-2.078-8.216s-3.291-4.353-5.716-5.716
		c-2.425-1.364-5.153-2.046-8.184-2.046c-3.031,0-5.759,0.682-8.184,2.046c-2.426,1.363-4.33,3.27-5.716,5.716
		s-2.078,5.186-2.078,8.216c0,3.031,0.692,5.771,2.078,8.216c1.386,2.447,3.29,4.352,5.716,5.716
		c2.425,1.364,5.152,2.046,8.184,2.046C971.231,560.195,973.959,559.513,976.384,558.149z"/>
	<path class="st1" d="M1043.413,566.95l-0.065-30.137l-14.938,24.94h-3.767l-14.938-24.551v29.747h-8.054v-45.465h6.949
		l18.057,30.137l17.731-30.137h6.949l0.065,45.465H1043.413z"/>
</g>
<g>
	<rect x="191.679" y="246.271" class="st2" width="670.977" height="43.823"/>
</g>
<path class="st3" d="M367.898,362.453c-29.846-67.727-97.58-116.182-176.218-116.182v43.823
	c80.731,0,146.591,65.724,148.582,145.984c0.031,1.243,0.094,2.477,0.094,3.727h21.911h21.911
	C384.179,412.298,378.338,386.143,367.898,362.453z"/>
<path class="st3" d="M550.76,0h-46.809v0L367.898,362.453l-26.145,69.652l0,0l-1.491,3.973c0.031,1.243,0.094,2.477,0.094,3.727
	h21.911h21.911h1.493L527.355,62.352L550.76,0L550.76,0z"/>
<path class="st2" d="M686.439,361.418c29.846-67.727,97.58-115.147,176.218-115.147v43.823c-80.731,0-146.591,64.689-148.582,144.95
	c-0.031,1.243-0.094,2.477-0.094,3.727h-21.911h-21.911C670.158,411.263,675.998,385.108,686.439,361.418z"/>
<path class="st3" d="M503.952,0l46.809,0v0c0,0,163.219,437.52,163.219,438.769h-42.329h-1.493L527.357,62.352L503.952,0L503.952,0z
	"/>
</svg>
