<?xml version="1.0" encoding="utf-8"?>
<svg version="1.1" id="cm-logo-icon" xmlns="http://www.w3.org/2000/svg" xmlns:xlink="http://www.w3.org/1999/xlink" x="0px" y="0px"
	 viewBox="0 0 670.977 439.804" style="enable-background:new 0 0 670.977 439.804;" xml:space="preserve">
<style type="text/css">
	.st0{fill:#0B7EC2;}
	.st1{fill:#0DB3E7;}
</style>
<g>
	<rect x="0" y="246.271" class="st0" width="670.977" height="43.823"/>
</g>
<path class="st1" d="M176.218,362.453C146.372,294.725,78.638,246.271,0,246.271v43.823c80.731,0,146.591,65.724,148.582,145.984
	c0.031,1.243,0.094,2.477,0.094,3.727h21.911h21.911C192.499,412.298,186.658,386.143,176.218,362.453z"/>
<path class="st1" d="M359.081,0h-46.809v0L176.218,362.453l-26.145,69.652l0,0l-1.491,3.973c0.031,1.243,0.094,2.477,0.094,3.727
	h21.911h21.911h1.493L335.676,62.352L359.081,0L359.081,0z"/>
<path class="st0" d="M494.759,361.418c29.846-67.727,97.58-115.147,176.218-115.147v43.823c-80.731,0-146.591,64.689-148.582,144.95
	c-0.031,1.243-0.094,2.477-0.094,3.727h-21.911h-21.911C478.478,411.263,484.319,385.108,494.759,361.418z"/>
<path class="st1" d="M312.272,0l46.809,0v0c0,0,163.219,437.52,163.219,438.769h-42.329h-1.493L335.677,62.352L312.272,0L312.272,0z
	"/>
</svg>
